<svg width="280" height="60" viewBox="0 0 280 60" fill="none" xmlns="http://www.w3.org/2000/svg">
<path d="M30.5 31.25C28.1794 31.25 25.9538 32.1719 24.3128 33.8128C22.6719 35.4538 21.75 37.6794 21.75 40C21.75 42.3206 22.6719 44.5462 24.3128 46.1872C25.9538 47.8281 28.1794 48.75 30.5 48.75C32.8206 48.75 35.0462 47.8281 36.6872 46.1872C38.3281 44.5462 39.25 42.3206 39.25 40C39.25 37.6794 38.3281 35.4538 36.6872 33.8128C35.0462 32.1719 32.8206 31.25 30.5 31.25ZM26.75 40C26.75 39.0054 27.1451 38.0516 27.8483 37.3483C28.5516 36.6451 29.5054 36.25 30.5 36.25C31.4946 36.25 32.4484 36.6451 33.1517 37.3483C33.8549 38.0516 34.25 39.0054 34.25 40C34.25 40.9946 33.8549 41.9484 33.1517 42.6516C32.4484 43.3549 31.4946 43.75 30.5 43.75C29.5054 43.75 28.5516 43.3549 27.8483 42.6516C27.1451 41.9484 26.75 40.9946 26.75 40Z" fill="white"/>
<path d="M44.315 12.79L36.3675 1.64746L7.145 24.9925L5.525 24.975V25H4.25V55H56.75V25H54.345L49.56 11.0025L44.315 12.79ZM49.0625 25H23.9925L42.665 18.635L46.47 17.4175L49.0625 25ZM39.375 14.475L20.1 21.045L35.365 8.84996L39.375 14.475ZM9.25 45.4225V34.5725C10.3054 34.2 11.2641 33.596 12.0558 32.8048C12.8474 32.0136 13.4519 31.0552 13.825 30H47.175C47.5478 31.0557 48.1521 32.0145 48.9438 32.8062C49.7355 33.5978 50.6943 34.2022 51.75 34.575V45.425C50.6943 45.7977 49.7355 46.4021 48.9438 47.1938C48.1521 47.9854 47.5478 48.9443 47.175 50H13.83C13.4555 48.9442 12.8499 47.9853 12.0575 47.1934C11.2652 46.4014 10.306 45.7964 9.25 45.4225Z" fill="white"/>
<path d="M120.332 8.88V51H110.072V25.74L100.652 51H92.3721L82.8921 25.68V51H72.6321V8.88H84.7521L96.5721 38.04L108.272 8.88H120.332ZM125.67 34.2C125.67 30.76 126.31 27.74 127.59 25.14C128.91 22.54 130.69 20.54 132.93 19.14C135.17 17.74 137.67 17.04 140.43 17.04C142.79 17.04 144.85 17.52 146.61 18.48C148.41 19.44 149.79 20.7 150.75 22.26V17.52H161.01V51H150.75V46.26C149.75 47.82 148.35 49.08 146.55 50.04C144.79 51 142.73 51.48 140.37 51.48C137.65 51.48 135.17 50.78 132.93 49.38C130.69 47.94 128.91 45.92 127.59 43.32C126.31 40.68 125.67 37.64 125.67 34.2ZM150.75 34.26C150.75 31.7 150.03 29.68 148.59 28.2C147.19 26.72 145.47 25.98 143.43 25.98C141.39 25.98 139.65 26.72 138.21 28.2C136.81 29.64 136.11 31.64 136.11 34.2C136.11 36.76 136.81 38.8 138.21 40.32C139.65 41.8 141.39 42.54 143.43 42.54C145.47 42.54 147.19 41.8 148.59 40.32C150.03 38.84 150.75 36.82 150.75 34.26ZM188.833 17.16C192.753 17.16 195.873 18.44 198.193 21C200.553 23.52 201.733 27 201.733 31.44V51H191.533V32.82C191.533 30.58 190.953 28.84 189.793 27.6C188.633 26.36 187.073 25.74 185.113 25.74C183.153 25.74 181.593 26.36 180.433 27.6C179.273 28.84 178.693 30.58 178.693 32.82V51H168.433V17.52H178.693V21.96C179.733 20.48 181.133 19.32 182.893 18.48C184.653 17.6 186.633 17.16 188.833 17.16ZM240.423 33.72C240.423 34.68 240.363 35.68 240.243 36.72H217.023C217.183 38.8 217.843 40.4 219.003 41.52C220.203 42.6 221.663 43.14 223.383 43.14C225.943 43.14 227.723 42.06 228.723 39.9H239.643C239.083 42.1 238.063 44.08 236.583 45.84C235.143 47.6 233.323 48.98 231.123 49.98C228.923 50.98 226.463 51.48 223.743 51.48C220.463 51.48 217.543 50.78 214.983 49.38C212.423 47.98 210.423 45.98 208.983 43.38C207.543 40.78 206.823 37.74 206.823 34.26C206.823 30.78 207.523 27.74 208.923 25.14C210.363 22.54 212.363 20.54 214.923 19.14C217.483 17.74 220.423 17.04 223.743 17.04C226.983 17.04 229.863 17.72 232.383 19.08C234.903 20.44 236.863 22.38 238.263 24.9C239.703 27.42 240.423 30.36 240.423 33.72ZM229.923 31.02C229.923 29.26 229.323 27.86 228.123 26.82C226.923 25.78 225.423 25.26 223.623 25.26C221.903 25.26 220.443 25.76 219.243 26.76C218.083 27.76 217.363 29.18 217.083 31.02H229.923ZM277.395 33.72C277.395 34.68 277.335 35.68 277.215 36.72H253.995C254.155 38.8 254.815 40.4 255.975 41.52C257.175 42.6 258.635 43.14 260.355 43.14C262.915 43.14 264.695 42.06 265.695 39.9H276.615C276.055 42.1 275.035 44.08 273.555 45.84C272.115 47.6 270.295 48.98 268.095 49.98C265.895 50.98 263.435 51.48 260.715 51.48C257.435 51.48 254.515 50.78 251.955 49.38C249.395 47.98 247.395 45.98 245.955 43.38C244.515 40.78 243.795 37.74 243.795 34.26C243.795 30.78 244.495 27.74 245.895 25.14C247.335 22.54 249.335 20.54 251.895 19.14C254.455 17.74 257.395 17.04 260.715 17.04C263.955 17.04 266.835 17.72 269.355 19.08C271.875 20.44 273.835 22.38 275.235 24.9C276.675 27.42 277.395 30.36 277.395 33.72ZM266.895 31.02C266.895 29.26 266.295 27.86 265.095 26.82C263.895 25.78 262.395 25.26 260.595 25.26C258.875 25.26 257.415 25.76 256.215 26.76C255.055 27.76 254.335 29.18 254.055 31.02H266.895Z" fill="white"/>
</svg>
