<svg width="133" height="40" viewBox="0 0 133 40" fill="none" xmlns="http://www.w3.org/2000/svg">
<path d="M20 20.8333C18.4529 20.8333 16.9691 21.4479 15.8752 22.5419C14.7812 23.6358 14.1666 25.1196 14.1666 26.6667C14.1666 28.2138 14.7812 29.6975 15.8752 30.7915C16.9691 31.8854 18.4529 32.5 20 32.5C21.5471 32.5 23.0308 31.8854 24.1247 30.7915C25.2187 29.6975 25.8333 28.2138 25.8333 26.6667C25.8333 25.1196 25.2187 23.6358 24.1247 22.5419C23.0308 21.4479 21.5471 20.8333 20 20.8333ZM17.5 26.6667C17.5 26.0036 17.7634 25.3677 18.2322 24.8989C18.701 24.4301 19.3369 24.1667 20 24.1667C20.663 24.1667 21.2989 24.4301 21.7677 24.8989C22.2366 25.3677 22.5 26.0036 22.5 26.6667C22.5 27.3297 22.2366 27.9656 21.7677 28.4344C21.2989 28.9033 20.663 29.1667 20 29.1667C19.3369 29.1667 18.701 28.9033 18.2322 28.4344C17.7634 27.9656 17.5 27.3297 17.5 26.6667Z" fill="#4469B4"/>
<path d="M29.21 8.52667L23.9117 1.09834L4.43 16.6617L3.35 16.65V16.6667H2.5V36.6667H37.5V16.6667H35.8967L32.7067 7.335L29.21 8.52667ZM32.375 16.6667H15.6617L28.11 12.4233L30.6467 11.6117L32.375 16.6667ZM25.9167 9.65L13.0667 14.03L23.2433 5.9L25.9167 9.65ZM5.83333 30.2817V23.0483C6.53696 22.8 7.17608 22.3973 7.70384 21.8699C8.2316 21.3424 8.63462 20.7035 8.88333 20H31.1167C31.3652 20.7038 31.7681 21.343 32.2959 21.8708C32.8236 22.3986 33.4629 22.8015 34.1667 23.05V30.2833C33.4629 30.5318 32.8236 30.9348 32.2959 31.4625C31.7681 31.9903 31.3652 32.6295 31.1167 33.3333H8.88667C8.63697 32.6295 8.23327 31.9902 7.70503 31.4623C7.17679 30.9343 6.53734 30.531 5.83333 30.2817Z" fill="#4469B4"/>
<path d="M69.0328 11.652V28.5H64.9288V18.396L61.1608 28.5H57.8488L54.0568 18.372V28.5H49.9528V11.652H54.8008L59.5288 23.316L64.2088 11.652H69.0328ZM71.1681 21.78C71.1681 20.404 71.4241 19.196 71.9361 18.156C72.4641 17.116 73.1761 16.316 74.0721 15.756C74.9681 15.196 75.9681 14.916 77.0721 14.916C78.0161 14.916 78.8401 15.108 79.5441 15.492C80.2641 15.876 80.8161 16.38 81.2001 17.004V15.108H85.3041V28.5H81.2001V26.604C80.8001 27.228 80.2401 27.732 79.5201 28.116C78.8161 28.5 77.9921 28.692 77.0481 28.692C75.9601 28.692 74.9681 28.412 74.0721 27.852C73.1761 27.276 72.4641 26.468 71.9361 25.428C71.4241 24.372 71.1681 23.156 71.1681 21.78ZM81.2001 21.804C81.2001 20.78 80.9121 19.972 80.3361 19.38C79.7761 18.788 79.0881 18.492 78.2721 18.492C77.4561 18.492 76.7601 18.788 76.1841 19.38C75.6241 19.956 75.3441 20.756 75.3441 21.78C75.3441 22.804 75.6241 23.62 76.1841 24.228C76.7601 24.82 77.4561 25.116 78.2721 25.116C79.0881 25.116 79.7761 24.82 80.3361 24.228C80.9121 23.636 81.2001 22.828 81.2001 21.804ZM96.4332 14.964C98.0012 14.964 99.2492 15.476 100.177 16.5C101.121 17.508 101.593 18.9 101.593 20.676V28.5H97.5132V21.228C97.5132 20.332 97.2812 19.636 96.8172 19.14C96.3532 18.644 95.7292 18.396 94.9452 18.396C94.1612 18.396 93.5372 18.644 93.0732 19.14C92.6092 19.636 92.3772 20.332 92.3772 21.228V28.5H88.2732V15.108H92.3772V16.884C92.7932 16.292 93.3532 15.828 94.0572 15.492C94.7612 15.14 95.5532 14.964 96.4332 14.964ZM117.069 21.588C117.069 21.972 117.045 22.372 116.997 22.788H107.709C107.773 23.62 108.037 24.26 108.501 24.708C108.981 25.14 109.565 25.356 110.253 25.356C111.277 25.356 111.989 24.924 112.389 24.06H116.757C116.533 24.94 116.125 25.732 115.533 26.436C114.957 27.14 114.229 27.692 113.349 28.092C112.469 28.492 111.485 28.692 110.397 28.692C109.085 28.692 107.917 28.412 106.893 27.852C105.869 27.292 105.069 26.492 104.493 25.452C103.917 24.412 103.629 23.196 103.629 21.804C103.629 20.412 103.909 19.196 104.469 18.156C105.045 17.116 105.845 16.316 106.869 15.756C107.893 15.196 109.069 14.916 110.397 14.916C111.693 14.916 112.845 15.188 113.853 15.732C114.861 16.276 115.645 17.052 116.205 18.06C116.781 19.068 117.069 20.244 117.069 21.588ZM112.869 20.508C112.869 19.804 112.629 19.244 112.149 18.828C111.669 18.412 111.069 18.204 110.349 18.204C109.661 18.204 109.077 18.404 108.597 18.804C108.133 19.204 107.845 19.772 107.733 20.508H112.869ZM131.858 21.588C131.858 21.972 131.834 22.372 131.786 22.788H122.498C122.562 23.62 122.826 24.26 123.29 24.708C123.77 25.14 124.354 25.356 125.042 25.356C126.066 25.356 126.778 24.924 127.178 24.06H131.546C131.322 24.94 130.914 25.732 130.322 26.436C129.746 27.14 129.018 27.692 128.138 28.092C127.258 28.492 126.274 28.692 125.186 28.692C123.874 28.692 122.706 28.412 121.682 27.852C120.658 27.292 119.858 26.492 119.282 25.452C118.706 24.412 118.418 23.196 118.418 21.804C118.418 20.412 118.698 19.196 119.258 18.156C119.834 17.116 120.634 16.316 121.658 15.756C122.682 15.196 123.858 14.916 125.186 14.916C126.482 14.916 127.634 15.188 128.642 15.732C129.65 16.276 130.434 17.052 130.994 18.06C131.57 19.068 131.858 20.244 131.858 21.588ZM127.658 20.508C127.658 19.804 127.418 19.244 126.938 18.828C126.458 18.412 125.858 18.204 125.138 18.204C124.45 18.204 123.866 18.404 123.386 18.804C122.922 19.204 122.634 19.772 122.522 20.508H127.658Z" fill="#4469B4"/>
</svg>
